<mxfile host="65bd71144e" scale="1" border="0" disableSvgWarning="true">
    <diagram id="BSD_hEZpz_qFzLCi8Z4_" name="第 1 页">
        <mxGraphModel dx="1556" dy="987" grid="1" gridSize="10" guides="1" tooltips="1" connect="1" arrows="1" fold="1" page="1" pageScale="1" pageWidth="1200" pageHeight="1920" math="0" shadow="0">
            <root>
                <mxCell id="0"/>
                <mxCell id="1" parent="0"/>
                <mxCell id="21" value="" style="group" vertex="1" connectable="0" parent="1">
                    <mxGeometry x="240" y="800" width="690" height="417.75" as="geometry"/>
                </mxCell>
                <mxCell id="13" style="edgeStyle=none;html=1;exitX=0.5;exitY=0;exitDx=0;exitDy=0;fontSize=9;endArrow=none;endFill=0;strokeWidth=2;" edge="1" parent="21" source="3">
                    <mxGeometry relative="1" as="geometry">
                        <mxPoint x="75.27272727272727" y="303.5116044399596" as="targetPoint"/>
                    </mxGeometry>
                </mxCell>
                <mxCell id="3" value="&lt;p style=&quot;line-height: 1.2&quot;&gt;&lt;font style=&quot;font-size: 9px&quot;&gt;显示未取快递信息&lt;/font&gt;&lt;/p&gt;" style="rounded=0;whiteSpace=wrap;html=1;fontSize=16;rotation=0;fillColor=#b1ddf0;strokeColor=#10739e;strokeWidth=2;" vertex="1" parent="21">
                    <mxGeometry y="363.79238143289604" width="125.45454545454544" height="53.957618567103935" as="geometry"/>
                </mxCell>
                <mxCell id="14" style="edgeStyle=none;html=1;exitX=0.5;exitY=0;exitDx=0;exitDy=0;fontSize=9;endArrow=none;endFill=0;strokeWidth=2;" edge="1" parent="21" source="5">
                    <mxGeometry relative="1" as="geometry">
                        <mxPoint x="203.7381818181819" y="303.5116044399596" as="targetPoint"/>
                    </mxGeometry>
                </mxCell>
                <mxCell id="5" value="显示错取快递信息" style="rounded=0;whiteSpace=wrap;html=1;fontSize=9;fillColor=#b1ddf0;strokeColor=#10739e;strokeWidth=2;" vertex="1" parent="21">
                    <mxGeometry x="138" y="363.79238143289604" width="125.45454545454544" height="53.957618567103935" as="geometry"/>
                </mxCell>
                <mxCell id="15" style="edgeStyle=none;html=1;exitX=0.5;exitY=0;exitDx=0;exitDy=0;fontSize=9;endArrow=none;endFill=0;strokeWidth=2;" edge="1" parent="21" source="7">
                    <mxGeometry relative="1" as="geometry">
                        <mxPoint x="331.2" y="303.5116044399596" as="targetPoint"/>
                    </mxGeometry>
                </mxCell>
                <mxCell id="7" value="显示错取快递用户信息" style="rounded=0;whiteSpace=wrap;html=1;fontSize=9;fillColor=#b1ddf0;strokeColor=#10739e;strokeWidth=2;" vertex="1" parent="21">
                    <mxGeometry x="276" y="363.79238143289604" width="112.9090909090909" height="53.957618567103935" as="geometry"/>
                </mxCell>
                <mxCell id="12" style="edgeStyle=none;html=1;exitX=0.5;exitY=1;exitDx=0;exitDy=0;exitPerimeter=0;fontSize=9;endArrow=none;endFill=0;strokeWidth=2;" edge="1" parent="21" source="8">
                    <mxGeometry relative="1" as="geometry">
                        <mxPoint x="331.2" y="303.5116044399596" as="targetPoint"/>
                    </mxGeometry>
                </mxCell>
                <mxCell id="8" value="&lt;font color=&quot;#000000&quot;&gt;用户端&lt;/font&gt;" style="shape=mxgraph.signs.tech.cell_phone;html=1;pointerEvents=1;fillColor=#1ba1e2;strokeColor=#006EAF;verticalLabelPosition=bottom;verticalAlign=top;align=center;sketch=0;fontSize=16;fontColor=#ffffff;strokeWidth=2;" vertex="1" parent="21">
                    <mxGeometry x="301.7181818181818" width="58.96363636363636" height="165.2452068617558" as="geometry"/>
                </mxCell>
                <mxCell id="16" style="edgeStyle=none;html=1;exitX=0.5;exitY=0;exitDx=0;exitDy=0;fontSize=9;endArrow=none;endFill=0;strokeWidth=2;" edge="1" parent="21" source="9">
                    <mxGeometry relative="1" as="geometry">
                        <mxPoint x="470.7054545454546" y="303.5116044399596" as="targetPoint"/>
                    </mxGeometry>
                </mxCell>
                <mxCell id="9" value="&lt;p style=&quot;line-height: 1.2&quot;&gt;&lt;font style=&quot;font-size: 9px&quot;&gt;确定快递是否被取错&lt;/font&gt;&lt;/p&gt;" style="rounded=0;whiteSpace=wrap;html=1;fontSize=16;rotation=0;fillColor=#b1ddf0;strokeColor=#10739e;strokeWidth=2;" vertex="1" parent="21">
                    <mxGeometry x="401.45454545454544" y="363.79238143289604" width="138" height="53.957618567103935" as="geometry"/>
                </mxCell>
                <mxCell id="17" style="edgeStyle=none;html=1;exitX=0.5;exitY=0;exitDx=0;exitDy=0;fontSize=9;endArrow=none;endFill=0;strokeWidth=2;" edge="1" parent="21" source="10">
                    <mxGeometry relative="1" as="geometry">
                        <mxPoint x="615.229090909091" y="303.5116044399596" as="targetPoint"/>
                    </mxGeometry>
                </mxCell>
                <mxCell id="10" value="展示取件码" style="rounded=0;whiteSpace=wrap;html=1;fontSize=9;fillColor=#b1ddf0;strokeColor=#10739e;strokeWidth=2;" vertex="1" parent="21">
                    <mxGeometry x="564.5454545454545" y="363.79238143289604" width="125.45454545454544" height="53.957618567103935" as="geometry"/>
                </mxCell>
                <mxCell id="11" value="" style="endArrow=none;html=1;fontSize=9;strokeWidth=2;" edge="1" parent="21">
                    <mxGeometry width="50" height="50" relative="1" as="geometry">
                        <mxPoint x="75.27272727272727" y="303.5116044399596" as="sourcePoint"/>
                        <mxPoint x="614.7272727272726" y="303.5116044399596" as="targetPoint"/>
                    </mxGeometry>
                </mxCell>
            </root>
        </mxGraphModel>
    </diagram>
</mxfile>